Coordinates																																									
version=1																																									
nRows= 11																																									
nColumns=42																																									
inDegrees=yes																																									
																																									
"Units are S.I. units (second, meters, Newtons, ...)"																																									
Angles are in degrees.																																									
																																									
endheader																																									
time	pelvis_tx	pelvis_ty	pelvis_tz	pelvis_tilt	pelvis_list	pelvis_rotation	hip_flexion_r	hip_adduction_r	hip_rotation_r	knee_angle_r	ankle_angle_r	subtalar_angle_r	mtp_angle_r	hip_flexion_l	hip_adduction_l	hip_rotation_l	knee_angle_l	ankle_angle_l	subtalar_angle_l	mtp_angle_l	lumbar_extension	lumbar_bending	lumbar_rotation	ground_force_vx	ground_force_vy	ground_force_vz	ground_force_px	ground_force_py	ground_force_pz	ground_force_vx	ground_force_vy	ground_force_vz	ground_force_px	ground_force_py	ground_force_pz	ground_torque_x	ground_torque_y	ground_torque_z	ground_torque_x	ground_torque_y	ground_torque_z
1.29	0.406157	0.701374	-0.049611	-4.619002	17.707138	-78.758408	43.396215	-5.821173	-16.809396	-37.656848	13.056657	0	0	14.097818	-6.311318	9.097092	-40.901604	13.129776	0	0	24.302307	0.427361	-14.755965	19.899481	156.070068	-23.605961	0.283808	-0.009755	0.064596	-7.735635	94.93396	28.422859	0.496787	-0.003379	-0.331379	0.000367	0.088283	-0.001645	0.000013	-0.001266	-0.000027
1.3	0.402691	0.700285	-0.04096	-5.033873	17.520206	-78.451897	43.084208	-5.479327	-17.796198	-38.826309	12.747863	0	0	15.062469	-7.48689	8.814399	-43.148579	11.07155	0	0	24.507895	0.39658	-15.060256	22.124332	176.212708	-29.279633	0.284091	-0.009712	0.067008	-4.942301	72.855042	21.407946	0.496763	-0.003864	-0.326021	0.000374	0.089965	-0.001676	0.000042	-0.004086	-0.000086
1.31	0.399254	0.699216	-0.032325	-5.405848	17.360134	-78.1586	42.793362	-5.130231	-18.63437	-39.982213	12.612811	0	0	16.046271	-8.530286	8.705398	-45.458324	9.165004	0	0	24.687073	0.352897	-15.337852	24.501171	196.768066	-34.379238	0.284572	-0.009594	0.069059	-2.746743	53.305168	14.672194	0.495952	-0.004042	-0.31972	0.000301	0.072477	-0.00135	0.000154	-0.015171	-0.000318
1.32	0.395962	0.698208	-0.023775	-5.708594	17.234585	-77.901131	42.516302	-4.773845	-19.240078	-41.084595	12.720753	0	0	17.050147	-9.359492	8.830117	-47.792476	7.543242	0	0	24.817349	0.300515	-15.555532	27.006657	217.384323	-38.687222	0.285203	-0.009423	0.070732	-1.187522	36.82246	8.769961	0.494495	-0.004093	-0.311237	0.000164	0.039369	-0.000733	0.000291	-0.02866	-0.000601
1.33	0.392896	0.697279	-0.015364	-5.936803	17.139227	-77.689484	42.239618	-4.415654	-19.606806	-42.110579	13.070407	0	0	18.080341	-9.948852	9.18367	-50.134254	6.293614	0	0	24.888589	0.247743	-15.709037	29.514002	237.491837	-42.034538	0.285906	-0.00923	0.07205	-0.212839	23.56395	4.101102	0.492598	-0.004204	-0.298285	-0.000012	-0.002962	0.000055	0.00041	-0.04033	-0.000845
1.34	0.390095	0.696429	-0.007136	-6.094793	17.065897	-77.529724	41.952241	-4.063823	-19.7696	-43.05199	13.615205	0	0	19.144062	-10.310356	9.711532	-52.47312	5.458717	0	0	24.901463	0.200566	-15.803277	31.838486	256.389709	-44.353451	0.286604	-0.009038	0.073067	0	0	0	0	0	0	-0.00019	-0.045783	0.000853	0	0	0
1.35	0.387559	0.695659	0.000885	-6.189854	17.006969	-77.430153	41.648076	-3.723145	-19.773312	-43.908752	14.28841	0	0	20.244906	-10.477	10.33176	-54.793	5.041714	0	0	24.863219	0.162298	-15.835488	33.789299	273.349945	-45.660309	0.287243	-0.008863	0.073854	0	0	0	0	0	0	-0.000332	-0.079934	0.001489	0	0	0
1.36	0.385258	0.694973	0.008689	-6.230344	16.957945	-77.401894	41.326541	-3.391744	-19.656106	-44.683145	15.019601	0	0	21.383111	-10.492188	10.954565	-57.068136	5.013817	0	0	24.78511	0.134464	-15.792712	35.217773	287.745361	-46.020348	0.287793	-0.008711	0.074477	0	0	0	0	0	0	-0.000413	-0.099237	0.001849	0	0	0
1.37	0.383146	0.694381	0.016275	-6.224911	16.921228	-77.454475	40.994987	-3.06465	-19.446039	-45.377981	15.745393	0	0	22.561336	-10.399996	11.49986	-59.264882	5.323342	0	0	24.68317	0.116509	-15.658055	36.058479	299.161224	-45.532726	0.288249	-0.008579	0.074995	0	0	0	0	0	0	-0.000424	-0.101929	0.001899	0	0	0
1.38	0.381181	0.693892	0.023645	-6.181547	16.904476	-77.590057	40.665686	-2.740426	-19.166047	-45.996898	16.415967	0	0	23.786095	-10.237038	11.911151	-61.346061	5.904847	0	0	24.575212	0.10569	-15.420738	36.345558	307.449799	-44.321232	0.288622	-0.008461	0.075453	0	0	0	0	0	0	-0.00038	-0.091398	0.001703	0	0	0
1.39	0.379339	0.693519	0.030804	-6.107792	16.913113	-77.801353	40.347048	-2.422318	-18.838364	-46.543535	16.997356	0	0	25.062297	-10.030742	12.160377	-63.275672	6.68771	0	0	24.473379	0.098445	-15.084599	36.192657	312.701294	-42.512119	0.288938	-0.008349	0.075882	0	0	0	0	0	0	-0.00031	-0.074524	0.001388	0	0	0
